<svg xmlns="http://www.w3.org/2000/svg" viewBox="0 0 114.98 164.19"><defs><style>.cls-1{fill:#1464ff;stroke:#1464ff;stroke-miterlimit:10;}</style></defs><title>Ativo 1</title><g id="Camada_2" data-name="Camada 2"><g id="Camada_2-2" data-name="Camada 2"><path class="cls-1" d="M107.9,1.05a13.31,13.31,0,0,0-4-.55H76.88A51.28,51.28,0,0,0,50.56,7.56,43.09,43.09,0,0,0,32.77,27.39,44.2,44.2,0,0,0,29,44.69,47.24,47.24,0,0,0,45,80.27l17.3,15.56s13.33,9.78,11,26.52a24.5,24.5,0,0,1-5.89,12.71A29.93,29.93,0,0,1,44.6,145.17H41.78a23,23,0,0,1-21.16-13,19.45,19.45,0,0,1-.92-15.91c1.48-3.68,4.32-7.39,9.81-8.29a10.09,10.09,0,0,0,6.89-5.41,8.69,8.69,0,0,0-1-8.68c-1.5-2-4.17-3.91-8.83-3.69,0,0-8.46-.26-16.74,8.58A34.83,34.83,0,0,0,.65,119.84c-.6,7.4.38,17.4,7.38,26.07.36.45.73.88,1.1,1.31A48.46,48.46,0,0,0,45.9,163.69h.18a44,44,0,0,0,26.41-8.57,45.64,45.64,0,0,0,9.93-9.35c.48-.65,1-1.3,1.46-1.94,1.06-1.34,2.94-5,4.89-10.53A46.72,46.72,0,0,0,91.3,118l.28-99.91h13A11.87,11.87,0,0,0,109.69,17a7.78,7.78,0,0,0,4.78-7.44S115,3.27,107.9,1.05Zm-35,80.12L55.24,65.56a30.68,30.68,0,0,1-3.39-3.45,18.44,18.44,0,0,1-3.15-5.18c-.1-.26-.2-.52-.3-.8-6-17.27,4.26-34.24,22.21-37.71.75-.14,1.52-.27,2.31-.36Z"/></g></g></svg>